<svg width="64" height="64" viewBox="0 0 64 64" fill="none" xmlns="http://www.w3.org/2000/svg">
<path d="M49.85 11.83V58.67C49.85 58.8212 49.79 58.9662 49.6831 59.0731C49.5762 59.18 49.4312 59.24 49.28 59.24H14.78C14.6001 59.24 14.4219 59.2046 14.2557 59.1357C14.0895 59.0669 13.9385 58.966 13.8113 58.8388C13.6841 58.7115 13.5831 58.5605 13.5143 58.3943C13.4454 58.2281 13.41 58.0499 13.41 57.87V11.83C13.41 11.6501 13.4454 11.472 13.5143 11.3057C13.5831 11.1395 13.6841 10.9885 13.8113 10.8613C13.9385 10.7341 14.0895 10.6332 14.2557 10.5643C14.4219 10.4955 14.6001 10.46 14.78 10.46H48.48C48.8433 10.46 49.1918 10.6044 49.4487 10.8613C49.7057 11.1182 49.85 11.4667 49.85 11.83Z" fill="#E3E3E3" fill-opacity="0.3"/>
<path d="M49.57 11.83V58.67C49.57 58.8212 49.5099 58.9662 49.4031 59.0731C49.2962 59.1799 49.1512 59.24 49 59.24H14.5C14.1367 59.24 13.7882 59.0957 13.5313 58.8387C13.2743 58.5818 13.13 58.2333 13.13 57.87V11.87C13.13 11.5067 13.2743 11.1582 13.5313 10.9013C13.7882 10.6443 14.1367 10.5 14.5 10.5H48.2C48.5565 10.4998 48.8991 10.6387 49.1549 10.887C49.4107 11.1354 49.5596 11.4736 49.57 11.83Z" stroke="#C8C8C8" stroke-width="1.25" stroke-miterlimit="10"/>
<path d="M41.47 15.14H45V50.25C45.1206 51.1 45.5442 51.8777 46.1929 52.44C46.8415 53.0023 47.6715 53.3113 48.53 53.31H20.63C19.6832 53.31 18.7751 52.9339 18.1056 52.2644C17.4361 51.5949 17.06 50.6868 17.06 49.74V15.14H21.58" fill="#C8C8C8" fill-opacity="0.8"/>
<path opacity="0.8" d="M48.19 45.29H23.87V50.2C23.8851 50.373 23.8851 50.547 23.87 50.72C23.7962 51.2519 23.6043 51.7606 23.3084 52.2087C23.0126 52.6569 22.6202 53.0331 22.16 53.31H48.21C50.77 53.04 50.89 50.31 50.89 50.24V45.29H48.19Z" fill="#E3E3E3"/>
<path d="M30.08 31.55H25.37C25.3027 31.5528 25.2369 31.5293 25.1865 31.4846C25.1362 31.4398 25.1051 31.3772 25.1 31.31C25.09 31.2774 25.09 31.2426 25.1 31.21L30.75 19.93C30.7727 19.8864 30.8073 19.85 30.8497 19.8253C30.8922 19.8005 30.9409 19.7883 30.99 19.79H36.6C36.6329 19.7887 36.6656 19.7938 36.6965 19.8052C36.7273 19.8165 36.7556 19.8338 36.7798 19.8561C36.8039 19.8784 36.8234 19.9052 36.8372 19.9351C36.851 19.9649 36.8587 19.9972 36.86 20.03C36.8745 20.0721 36.8745 20.1179 36.86 20.16L30.17 29H36.65C36.7174 28.9972 36.7831 29.0207 36.8335 29.0655C36.8839 29.1102 36.9149 29.1728 36.92 29.24C36.9176 29.3002 36.8926 29.3574 36.85 29.4L26.09 40.67C25.99 40.73 25.28 41.33 25.63 40.42L30.08 31.55Z" fill="#0079D6"/>
<path d="M34.52 8.23C34.5252 8.15676 34.5252 8.08324 34.52 8.01C34.5207 7.58189 34.437 7.15784 34.2738 6.76207C34.1105 6.3663 33.871 6.00655 33.5687 5.70337C33.2665 5.40018 32.9074 5.1595 32.5122 4.99507C32.1169 4.83063 31.6931 4.74566 31.265 4.745C30.8369 4.74434 30.4128 4.82801 30.0171 4.99124C29.6213 5.15446 29.2616 5.39404 28.9584 5.6963C28.3461 6.30673 28.0013 7.13539 28 8C27.9948 8.07324 27.9948 8.14676 28 8.22H21.41V16.66H41.3V8.23H34.52Z" fill="#919191"/>
</svg>
