<svg width="64" height="64" viewBox="0 0 64 64" fill="none" xmlns="http://www.w3.org/2000/svg">
<path d="M40.93 51.66L24.42 54.3V12.12L40.93 9.47998V51.66Z" fill="#ACACAC"/>
<path d="M57.71 53.19L41.12 51.87L24.53 54.52L7.95001 53.19V12.14L24.53 13.47L41.12 10.82L57.71 12.14V53.19Z" fill="#E3E3E3" fill-opacity="0.3"/>
<path d="M24.41 54.52H24.33L7.13 53.14V10.76L24.36 12.13L40.94 9.47998H41L58.2 10.85V53.24L41 51.87L24.41 54.52ZM8.46 51.91L24.36 53.18L40.94 50.53H41L56.87 51.8V12.09L41 10.82L24.41 13.47H24.33L8.46 12.19V51.91Z" fill="#E3E3E3"/>
<path d="M59.63 31.82C59.63 31.0243 59.3139 30.2612 58.7513 29.6986C58.1887 29.136 57.4257 28.82 56.63 28.82C56.5343 27.7148 56.1055 26.6648 55.4002 25.8086C54.695 24.9524 53.7465 24.3304 52.6802 24.0248C51.6138 23.7192 50.4799 23.7444 49.4282 24.0971C48.3764 24.4497 47.4565 25.1133 46.79 26H46.42C45.2951 26.0084 44.2158 26.4454 43.4019 27.2219C42.588 27.9985 42.1008 29.0561 42.0396 30.1794C41.9784 31.3026 42.3478 32.407 43.0725 33.2673C43.7972 34.1277 44.8227 34.6794 45.94 34.81H57.04C57.7609 34.7105 58.4211 34.3524 58.8976 33.8023C59.3741 33.2522 59.6344 32.5477 59.63 31.82ZM25.61 32.61C25.61 31.6525 25.2297 30.7343 24.5527 30.0573C23.8757 29.3803 22.9574 29 22 29H21.94C21.8182 27.678 21.3006 26.4235 20.4547 25.4004C19.6089 24.3772 18.4742 23.6329 17.1987 23.2646C15.9233 22.8963 14.5665 22.9212 13.3054 23.3361C12.0444 23.7509 10.9377 24.5364 10.13 25.59H9.69001C8.33862 25.6073 7.04426 26.1373 6.06886 27.0728C5.09346 28.0083 4.50986 29.2794 4.43616 30.6289C4.36246 31.9784 4.80416 33.3055 5.67188 34.3416C6.5396 35.3778 7.76854 36.0456 9.11001 36.21H22.48C23.3512 36.0953 24.1504 35.6659 24.7269 35.0028C25.3034 34.3397 25.6175 33.4886 25.61 32.61Z" fill="white" stroke="#E3E3E3" stroke-miterlimit="10"/>
<path d="M32.83 42C38.3529 42 42.83 37.5228 42.83 32C42.83 26.4772 38.3529 22 32.83 22C27.3072 22 22.83 26.4772 22.83 32C22.83 37.5228 27.3072 42 32.83 42Z" fill="#0079D6"/>
<path d="M36.89 26.93L31.25 30.95L28.77 37.43L34.41 33.4L36.89 26.93Z" fill="white"/>
</svg>
