<svg width="64" height="64" viewBox="0 0 64 64" fill="none" xmlns="http://www.w3.org/2000/svg">
<path d="M26.1 48.89H37.9C37.5189 47.8373 37.3128 46.7293 37.29 45.61H26.71L26.1 48.89Z" fill="#E7E7E7"/>
<path d="M43 53.52V54.52C42.9963 54.5542 42.9858 54.5874 42.9692 54.6175C42.9525 54.6477 42.9301 54.6742 42.9031 54.6956C42.8761 54.717 42.8451 54.7329 42.812 54.7422C42.7789 54.7515 42.7442 54.7542 42.71 54.75H21.31C21.15 54.75 21.01 54.64 21.01 54.52V53.52H21.08C22.0664 53.24 22.9855 52.7623 23.7815 52.1159C24.5774 51.4695 25.2336 50.668 25.71 49.76C25.8598 49.4793 25.9901 49.1886 26.1 48.89C26.4905 47.8395 26.7001 46.7305 26.72 45.61V45.26H37.29V45.61C37.3069 46.7299 37.5131 47.8389 37.9 48.89C38.0133 49.1888 38.147 49.4795 38.3 49.76C38.7739 50.668 39.428 51.4698 40.2224 52.1163C41.0168 52.7628 41.9347 53.2404 42.92 53.52H43Z" fill="#ACACAC"/>
<path d="M37.91 48.89C37.5231 47.8389 37.3169 46.7299 37.3 45.61V38.61H26.72V45.61C26.7001 46.7305 26.4905 47.8395 26.1 48.89C25.9901 49.1886 25.8598 49.4793 25.71 49.76H38.31C38.157 49.4795 38.0233 49.1888 37.91 48.89ZM32.01 43.89C31.656 43.89 31.3099 43.785 31.0155 43.5883C30.7212 43.3916 30.4917 43.1121 30.3563 42.785C30.2208 42.4579 30.1853 42.098 30.2544 41.7508C30.3235 41.4035 30.4939 41.0846 30.7443 40.8343C30.9946 40.5839 31.3136 40.4134 31.6608 40.3444C32.008 40.2753 32.3679 40.3108 32.695 40.4462C33.0221 40.5817 33.3016 40.8112 33.4983 41.1055C33.695 41.3999 33.8 41.746 33.8 42.1C33.7987 42.3351 33.7511 42.5676 33.6599 42.7842C33.5688 43.0009 33.4358 43.1975 33.2687 43.3628C33.1015 43.5281 32.9034 43.6588 32.6858 43.7476C32.4681 43.8363 32.2351 43.8813 32 43.88L32.01 43.89Z" fill="#919191"/>
<path d="M58.85 9.85V38.42H5.15V10.67C5.15 10.2934 5.29961 9.93221 5.56591 9.66591C5.83221 9.39961 6.19339 9.25 6.57 9.25H58.26C58.3383 9.24999 58.4159 9.26557 58.4881 9.29585C58.5604 9.32612 58.6258 9.37048 58.6808 9.42633C58.7357 9.48218 58.7789 9.5484 58.808 9.62114C58.837 9.69388 58.8513 9.77168 58.85 9.85Z" fill="#E3E3E3" fill-opacity="0.3"/>
<path opacity="0.5" d="M58.85 38.54V43.72C58.8513 43.9068 58.8155 44.0921 58.7446 44.265C58.6737 44.4378 58.5692 44.5949 58.4371 44.727C58.3049 44.8592 58.1479 44.9637 57.975 45.0346C57.8021 45.1055 57.6168 45.1413 57.43 45.14H6.57C6.38315 45.1413 6.1979 45.1055 6.02502 45.0346C5.85214 44.9637 5.69507 44.8592 5.56294 44.727C5.43082 44.5949 5.32627 44.4378 5.25538 44.265C5.18449 44.0921 5.14867 43.9068 5.15 43.72V38.54H58.85Z" fill="#E3E3E3"/>
<path d="M58.85 9.99999V43.76C58.8513 43.9468 58.8155 44.1321 58.7446 44.305C58.6737 44.4779 58.5692 44.6349 58.4371 44.7671C58.3049 44.8992 58.1479 45.0037 57.975 45.0746C57.8021 45.1455 57.6168 45.1813 57.43 45.18H6.57C6.38315 45.1813 6.1979 45.1455 6.02502 45.0746C5.85214 45.0037 5.69507 44.8992 5.56294 44.7671C5.43082 44.6349 5.32627 44.4779 5.25538 44.305C5.18449 44.1321 5.14867 43.9468 5.15 43.76V10.76C5.15787 10.3895 5.31127 10.037 5.577 9.7788C5.84274 9.52055 6.19946 9.37728 6.57 9.37999H58.26C58.3405 9.37841 58.4204 9.39361 58.4947 9.42461C58.569 9.45561 58.6361 9.50173 58.6916 9.56005C58.747 9.61837 58.7898 9.68761 58.8171 9.76335C58.8444 9.83909 58.8556 9.91968 58.85 9.99999Z" stroke="#C8C8C8" stroke-width="1.25" stroke-miterlimit="10"/>
<path d="M5.3 38.54H58.7Z" fill="#8F8F8F" fill-opacity="0.1"/>
<path d="M5.3 38.54H58.7" stroke="#CCCCCC" stroke-width="0.96" stroke-linejoin="round"/>
<path opacity="0.5" d="M32 22C28.34 19 21.18 18.6 21.18 18.6V32.12C26.51 31.26 32 34.83 32 34.83C32 34.83 37.49 31.26 42.83 32.12V18.58C42.83 18.58 35.36 19.31 32 22Z" fill="#E3E3E3"/>
<path d="M32 20.3C28.34 17.3 21.18 16.9 21.18 16.9V30.45C26.52 29.59 32.01 33.15 32.01 33.15C32.01 33.15 37.5 29.59 42.84 30.45V16.9C42.84 16.9 35.36 17.64 32 20.3Z" fill="#0079D6"/>
</svg>
