<svg width="64" height="64" viewBox="0 0 64 64" fill="none" xmlns="http://www.w3.org/2000/svg">
<path d="M32.06 20.19L14.69 37.55L8.82001 31.68L26.19 14.31C28.13 12.37 31.63 10.94 33.53 12.84C35.43 14.74 34 18.25 32.06 20.19ZM20.94 48.04L15.72 42.82L18.54 41.41L22.35 45.21L20.94 48.04Z" fill="#919191"/>
<path d="M16.82 44C14.82 43.76 9.50001 46.43 8.82001 55.11C9.31001 55.06 9.82001 55.01 10.24 54.94C17.39 53.94 19.98 48.85 19.76 46.94L16.82 44Z" fill="#0079D6"/>
<path d="M49.69 37.81L32.32 55.18L26.44 49.31L43.81 31.94C45.75 30 49.25 28.56 51.16 30.47C53.07 32.38 51.63 35.87 49.69 37.81Z" fill="#919191"/>
<path opacity="0.8" d="M14.51 37.74L28.51 23.74C24.11 28.15 11.66 23.05 5.78 28.92L14.51 37.74ZM26.26 49.49L40.26 35.49C35.85 39.89 40.95 52.34 35.08 58.22L26.26 49.49Z" fill="#C8C8C8"/>
<path d="M56.85 7.14999C53 3.33999 44.26 7.99999 40.38 11.87L15 37.21L26.79 49L52.13 23.62C56 19.74 60.66 11 56.85 7.14999Z" fill="#E3E3E3" fill-opacity="0.5"/>
<path d="M56.85 7.26997C55.19 5.60997 52.58 5.55997 49.85 6.34997C47.5575 7.06773 45.3888 8.1335 43.42 9.50997C42.3472 10.2444 41.3431 11.0745 40.42 11.99L15 37.33L26.79 49.08L52.13 23.74C56 19.86 60.66 11.08 56.85 7.26997Z" stroke="#C8C8C8" stroke-width="1.25" stroke-miterlimit="10"/>
<path d="M48.09 21.62C47.9813 21.7287 47.8338 21.7898 47.68 21.7898C47.5262 21.7898 47.3788 21.7287 47.27 21.62C47 21.4 42.6 17 42.38 16.73C42.325 16.6768 42.2812 16.6131 42.2513 16.5427C42.2214 16.4723 42.206 16.3965 42.206 16.32C42.206 16.2435 42.2214 16.1677 42.2513 16.0973C42.2812 16.0269 42.325 15.9632 42.38 15.91C43.1372 15.1528 44.1642 14.7274 45.235 14.7274C46.3058 14.7274 47.3328 15.1528 48.09 15.91C48.8472 16.6672 49.2726 17.6942 49.2726 18.765C49.2726 19.8358 48.8472 20.8628 48.09 21.62Z" fill="#0079D6"/>
</svg>
