<svg width="64" height="64" viewBox="0 0 64 64" fill="none" xmlns="http://www.w3.org/2000/svg">
<path d="M15.63 21.8L31.85 34.43L26.64 21.93M48.96 21.8L32.67 34.43L37.88 21.94" stroke="#C8C8C8" stroke-width="1.22" stroke-miterlimit="10"/>
<path d="M49.79 23.11C49.64 21.8 47.08 20.77 43.95 20.77C41.1 20.77 38.74 21.62 38.21 22.77H38C37.47 21.64 35.1 20.77 32.26 20.77C29.42 20.77 27.05 21.62 26.52 22.77H26.29C25.77 21.63 23.4 20.77 20.56 20.77C17.42 20.77 14.87 21.77 14.71 23.11C14.8194 18.5293 16.7159 14.173 19.9943 10.9719C23.2727 7.77086 27.673 5.97888 32.255 5.97888C36.837 5.97888 41.2373 7.77086 44.5157 10.9719C47.7941 14.173 49.6906 18.5293 49.8 23.11H49.79Z" fill="#0079D6"/>
<g opacity="0.1">
<path opacity="0.3" d="M48.63 58.3H15.37C15.1234 58.3 14.8868 58.202 14.7124 58.0276C14.538 57.8532 14.44 57.6166 14.44 57.37V35.82C14.44 35.5733 14.538 35.3368 14.7124 35.1624C14.8868 34.988 15.1234 34.89 15.37 34.89H49.17C49.2216 34.8886 49.2729 34.8977 49.3209 34.9168C49.3688 34.936 49.4123 34.9646 49.4488 35.0011C49.4853 35.0376 49.514 35.0812 49.5331 35.1291C49.5522 35.177 49.5614 35.2284 49.56 35.28V57.37C49.56 57.6166 49.462 57.8532 49.2876 58.0276C49.1132 58.202 48.8767 58.3 48.63 58.3Z" fill="#404040"/>
</g>
<path opacity="0.3" d="M48.63 57.92H15.37C15.1234 57.92 14.8868 57.822 14.7124 57.6476C14.538 57.4732 14.44 57.2366 14.44 56.99V35.44C14.44 35.1933 14.538 34.9568 14.7124 34.7824C14.8868 34.6079 15.1234 34.51 15.37 34.51H49.17C49.2216 34.5086 49.2729 34.5177 49.3209 34.5368C49.3688 34.556 49.4123 34.5846 49.4488 34.6211C49.4853 34.6576 49.514 34.7012 49.5331 34.7491C49.5522 34.797 49.5614 34.8484 49.56 34.9V57C49.5574 57.2449 49.4582 57.4789 49.2841 57.6511C49.11 57.8234 48.8749 57.92 48.63 57.92Z" fill="#E3E3E3"/>
<path opacity="0.8" d="M15 34.56H49.54C49.6461 34.56 49.7478 34.6021 49.8228 34.6772C49.8979 34.7522 49.94 34.8539 49.94 34.96V39.24H14.06V35.51C14.0719 35.2636 14.1745 35.0303 14.348 34.8549C14.5215 34.6795 14.7537 34.5745 15 34.56Z" fill="#C8C8C8"/>
<path d="M21.4 37.6C21.8087 37.6 22.14 37.2687 22.14 36.86C22.14 36.4513 21.8087 36.12 21.4 36.12C20.9913 36.12 20.66 36.4513 20.66 36.86C20.66 37.2687 20.9913 37.6 21.4 37.6Z" fill="#919191"/>
<path d="M19.1 37.6C19.5087 37.6 19.84 37.2687 19.84 36.86C19.84 36.4513 19.5087 36.12 19.1 36.12C18.6913 36.12 18.36 36.4513 18.36 36.86C18.36 37.2687 18.6913 37.6 19.1 37.6Z" fill="#919191"/>
<path d="M16.81 37.6C17.2187 37.6 17.55 37.2687 17.55 36.86C17.55 36.4513 17.2187 36.12 16.81 36.12C16.4013 36.12 16.07 36.4513 16.07 36.86C16.07 37.2687 16.4013 37.6 16.81 37.6Z" fill="#919191"/>
<path d="M15.37 34.51H49.17C49.2734 34.51 49.3726 34.5511 49.4458 34.6242C49.5189 34.6974 49.56 34.7966 49.56 34.9V57C49.56 57.2467 49.462 57.4832 49.2876 57.6576C49.1132 57.832 48.8767 57.93 48.63 57.93H15.37C15.1234 57.93 14.8868 57.832 14.7124 57.6576C14.538 57.4832 14.44 57.2467 14.44 57V35.44C14.44 35.1934 14.538 34.9568 14.7124 34.7824C14.8868 34.608 15.1234 34.51 15.37 34.51Z" stroke="#C8C8C8" stroke-width="1.25" stroke-miterlimit="10"/>
<path opacity="0.8" d="M28.85 51.71L25.06 47.92L28.85 44.13M36.69 44.13L40.48 47.92L36.69 51.71M34 42.86L31.42 52.98" stroke="#C8C8C8" stroke-miterlimit="10"/>
</svg>
