<svg width="64" height="64" viewBox="0 0 64 64" fill="none" xmlns="http://www.w3.org/2000/svg">
<path d="M60 19V50.57H35.84C35.3833 51.1451 34.8126 51.6196 34.1639 51.9638C33.5151 52.308 32.8023 52.5143 32.07 52.57C30.64 52.57 29.84 52.12 28.3 50.57H4.04999V19H8.65999V44L28.28 45.39C29.2723 45.5318 30.1802 46.0263 30.8377 46.7829C31.4951 47.5395 31.8581 48.5076 31.86 49.51H32.08C32.0798 48.5071 32.442 47.5378 33.0998 46.7808C33.7577 46.0237 34.6669 45.5298 35.66 45.39L55.28 44V19H60Z" fill="#ACACAC"/>
<path d="M32 49.54C32.0005 48.5386 31.6397 47.5706 30.9839 46.8137C30.3281 46.0569 29.4213 45.562 28.43 45.42L8.76999 44V11.44L27.77 12.79C28.3264 12.7806 28.879 12.8829 29.3952 13.0909C29.9113 13.2989 30.3805 13.6083 30.7749 14.0009C31.1693 14.3934 31.4809 14.8611 31.6914 15.3763C31.9018 15.8914 32.0068 16.4436 32 17V49.54Z" fill="#E3E3E3"/>
<path d="M32 49.54C31.9998 48.5371 32.362 47.5679 33.0199 46.8108C33.6777 46.0538 34.5869 45.5599 35.58 45.42L55.19 44V11.71L36.19 12.79C35.6369 12.786 35.0886 12.8923 34.5772 13.1027C34.0657 13.3131 33.6013 13.6234 33.2111 14.0154C32.821 14.4074 32.5129 14.8732 32.305 15.3857C32.097 15.8982 31.9933 16.447 32 17V49.54Z" fill="#E3E3E3" fill-opacity="0.3"/>
<path d="M31.71 49.54C31.7105 48.5386 31.3497 47.5706 30.6939 46.8137C30.0381 46.0569 29.1313 45.562 28.14 45.42L8.51999 44V11.44L27.52 12.79C28.073 12.786 28.6213 12.8923 29.1328 13.1027C29.6443 13.3131 30.1087 13.6233 30.4988 14.0153C30.889 14.4073 31.1971 14.8732 31.405 15.3857C31.613 15.8982 31.7166 16.447 31.71 17V49.54ZM32.19 49.54C32.1895 48.5386 32.5503 47.5706 33.2061 46.8137C33.8619 46.0569 34.7687 45.562 35.76 45.42L55.38 44V11.44L36.38 12.79C35.8269 12.786 35.2786 12.8923 34.7672 13.1027C34.2557 13.3131 33.7913 13.6233 33.4011 14.0153C33.011 14.4073 32.7029 14.8732 32.495 15.3857C32.287 15.8982 32.1833 16.447 32.19 17V49.54Z" stroke="#C8C8C8" stroke-width="1.25" stroke-miterlimit="10"/>
<path d="M31.96 37.93C36.8201 37.93 40.76 33.9901 40.76 29.13C40.76 24.2699 36.8201 20.33 31.96 20.33C27.0999 20.33 23.16 24.2699 23.16 29.13C23.16 33.9901 27.0999 37.93 31.96 37.93Z" fill="#0079D6"/>
<path d="M27.12 29.46L30.36 32.71L36.01 25.55" stroke="white" stroke-width="1.85" stroke-miterlimit="10"/>
</svg>
