<svg xmlns="http://www.w3.org/2000/svg" height="64" width="64" viewBox="0 0 64 64"><defs><style>.cls-2,.cls-4{fill:none;stroke-miterlimit:10}.cls-2{stroke:#0079d6;stroke-width:3.25px}.cls-4{stroke:#c8c8c8;stroke-width:1.25px}</style></defs><g id="Layer_1" data-name="Layer 1"><path style="fill:none;stroke-miterlimit:10" d="M0 0h64v64H0z"/><path class="cls-2" d="M17.05 6.77a5.87 5.87 0 0 0-4.45 1.47c-.92 1-1.39 2.66-1.39 5V21q0 8.71-5.58 10.91v.14q5.58 2.31 5.58 11.42V51q0 6.35 5.84 6.34M47 57.23a5.87 5.87 0 0 0 4.45-1.47c.92-1 1.39-2.66 1.39-5V43q0-8.72 5.58-10.91v-.14q-5.58-2.31-5.58-11.42V13q0-6.35-5.84-6.34"/><path style="opacity:.5;fill:#e3e3e3" d="M17.13 13.91h29.75v9.52H17.13z"/><path class="cls-4" d="M17.13 13.91h29.75v9.52H17.13z"/><path style="fill:#c8c8c8;opacity:.5" d="M17.13 27.24h29.75v9.52H17.13z"/><path class="cls-4" d="M17.13 27.24h29.75v9.52H17.13z"/><path style="fill:#acacac;opacity:.5" d="M17.13 40.56h29.75v9.52H17.13z"/><path class="cls-4" d="M17.13 40.56h29.75v9.52H17.13z"/></g></svg>